<?xml version="1.0" encoding="UTF-8"?>
<svg id="Layer_1" data-name="Layer 1" xmlns="http://www.w3.org/2000/svg" version="1.1" viewBox="0 0 1920 1080">
  <defs>
    <style>
      .cls-1 {
        display: none;
      }

      .cls-1, .cls-2 {
        fill: none;
      }

      .cls-1, .cls-2, .cls-3 {
        stroke: #000;
        stroke-miterlimit: 10;
        stroke-width: .75px;
      }

      .cls-3 {
        fill: #333;
      }

      .cls-4 {
        fill: #000;
        stroke-width: 0px;
      }
    </style>
  </defs>
  <path class="cls-2" d="M778.28,618.9c.95,2.73.38,6.88-.06,9.71-1.37-1.82-2.95-4.19-4.89-5.6-.78,2.5-2.42,4.85-3.64,7.16-2.02-.63-4.1-1.73-6.13-2.45.4,1.4,1.25,2.59,1.12,4-1.89.11-3.97-.34-5.82-.52.71,2.76,1.57,6.17,2.11,9-4.07-3.65-14.12-7.51-16.9-1.64-.62,1.3-.73,3.36-1.19,4.92-.9,3.1-3.2,6.37-5.75,8.22-.18-.83-.56-1.58-.88-2.36-.96.62-1.71,1.65-2.71,2.15-.22-1.19-1.08-2.72-2-3.36-.39,7.69-6.1,14.61-7.74,22.1-3.19-4.51-9.11-6.64-12.81-10.68-.26,5.49,1.04,10.64-.65,16.16-4.07-4.93-10.37-8.94-16.47-10.74-.12,1.66.24,3.38.13,5.06-3.36-.64-6.87-1.78-10.25-2.69.93,3.11,2.62,4.14,4.64,6.31-2.91-.42-5.84-.55-8.66-1.4-1.3-.39-2.7-1.03-4.02-1.19-.32,2.01.86,4.97,1.34,6.94-5.16-2.89-10.15-5.72-15.92-7.62-3.41-1.12-7.86-2.64-11.51-2.11-7.06,1.02-13.43,5.37-20.36,7.36-9.47,2.72-19.28,9.39-28.73,11.34-3.84.79-7.16,2.85-10.81,3.81-3.89,1.02-7.89,2.4-11.81,3.53-9.51,2.73-18.28,7.74-28.09,9.58-10.37,1.94-18.04-.65-27.02-5.44-3.75-2-7.17-4.59-10.81-6.73-2.96-1.73-6.35-2.45-9.23-4.23-5.42-3.34-12.57-11.43-13.28-18.04,7.15-7.5,15.73-11.6,24.31-17,14.24-8.96,30.01-19.09,39.1-33.6,3.24-5.18,5.05-11.04,5.84-16.91.53-3.89-.23-7.82,1.86-11.03,10.04-15.44,23.74-28.49,39.65-37.77,3.67-2.14,10.29-4.5,12.71-8.28-2.92-10.93-.29-25.82,1.02-36.93,1.14-9.63,2.82-25.93,12.55-30.74,10.86-5.37,20.89,9.22,24.39,17.82,2.83,6.97,4.61,13.6,8.37,20.15,4.8,8.35,10.14,16.61,15.77,24.54s13.16,15.78,15.48,25.04c1.67,6.66,1.01,29.44-8.63,29.96-2.25,2.02-8.83.58-11.4-.42-4.37-1.71-6.99-4.15-11.88-4.83-3.45-.48-6.11-.51-5.57-3.86.42-2.6,2.77-7.1,5.04-8.57,4.18-2.71,8.88,3.25,10.81-3.29,1.13-3.82,1.37-8.43.77-12.42-.5-3.34-2.24-6.5-2.2-9.94"/>
  <path id="tail" class="cls-3" d="M1276.59,357.02c24.35.59,52.01,12.42,71.4,27,27.66,20.79,42.05,49.53,60.21,77.91,13.5,21.09,28.09,50.36,48.86,65.38,10.39,7.51,27.48,12.43,40.21,10.92,23.46-2.78,41.77-24.09,64.73-29.73,14.08-3.46,29.79,2.09,41.69,9.22,11.24,6.73,16.8,9.94,27.53.14-.82,14.79-20.92,16.73-30.65,21.18,4.76,1.81,11.1.27,15.56-.98-4.77,8.59-19.86,5.27-27,2.79,3.62,3.98,17.49,9.52,23.34,10.45-10.89-.11-19.22-3.37-29.49-4.83,3.12,2.78,8.42,3.7,12.04,6.21,3.74,2.59,6.83,6.09,9.4,9.72-3.31-3.77-11.98-4.98-16.78-5.15,1.39,1.92,3.49,2.54,4.77,4.5-2.07-5.22-16.66-4.22-20.72-2.34,3.11,5.54,12.64,13.65,19.41,10.47-6.55,2.64-18.4,1.52-24.29-3.15,1.62,3.42,4.85,6.34,8.43,7.05-6.58-.12-24.17,5.9-29.06-1.05,3.47,4.39,7.74,6.3,12.34,8.2-7.8,2.34-13.84-.41-20.68-3.84,1.24,5.28,6.78,7.85,11.41,9.77-6.63.1-14.83-1.36-20.01-5.72,1.13,2.99,1.66,5.38,4.81,7.27,4.41,2.66,10.94,3.1,15.99,3.18-6.95,6.13-19.44,6.7-27.87,3.86,2.95,2.87,6.09,6.12,9.39,8.46-3.88-3.9-12.21-5.73-17.65-5.42,3.18,3.99,7.9,6.12,13.05,6.27-3.91,2.42-12.53-.19-16.79-1.06-5.84-1.2-10.27-4.71-15.72-6.45.96,2.48-.52,5.96-2.26,8.01-.22-3.06.74-7.02-1.95-9.08-4.04,4.02-.32,9.56,2.91,12.67-4.14-4.59-9.14-8.36-9.58-15.34-3.57,2.82-1.05,9.28-.37,12.78-4.86-.54-8.91-6.72-11.49-10.38-.71,2.98-.39,6.02.9,8.76-4.8-1.95-7.9-5.19-11.34-8.82.08.66-.13,1.45-.05,2.15-4.32-4.54-6.29-7.86-7.99-14.01-1.5,4.26.69,9.92,2.66,13.75-4.58-3.38-5.24-9.13-5.61-14.4-2.6,2.91-2.77,7.97-1.22,11.35-4.38-4.98-9.82-13.41-10.2-20.16-3.55,4.46-2.16,12.44,1.32,16.55-3.15-3.8-5.27-11.02-4.96-15.98-5.62,1.28-10.02,8.94-11.2,14.04.06-5.22,2.78-12.67,5.65-17.01-5.51-4.91-13.67,9.99-14.19,14.4.19-6.94,8.75-18.36,8.89-17.68-.06-.95.69-1.53.88-2.42.27-1.29.05-2.09-.33-3.3-.48,2.7-2.4,4.98-4.31,7.06-2.97,3.22-5.76,6.88-6.13,11.28-.95-.91-.7-4.28-.57-5.51.3-2.86,1.41-5.54,1.82-8.37.45-3.12.69-6.29-1.33-8.95-.93-1.22-1.83-2.43-2.72-3.68.92,2.77-1,6.98-2.78,8.99.03-.9.36-2.03.07-2.93-.59-1.84-2.34-3.41-3.45-4.93-1.93-2.63-2.97-6.63-2.57-9.89-1.54,2.68-2.69,6.5-1.58,9.69-2.75-.71-3.64-6.05-4.36-8.32-1.59-5.01-.42-10.2,1.09-15.28-1.4,2.55-3.77,4.52-5.23,7.11-.92,1.63-1.54,3.29-2.14,5.05-1.25-4.04-1.08-8.46-1.08-12.65,0-2.81-.29-6.54.39-9.09-.02,2.72-3.53,5.24-4.06,8.22-.47,2.69-.25,5.6-.21,8.33-.89-3.06-1.09-6.04-1.09-9.22,0-2.06.73-4.05.65-6.05-1.28.82-3.31.59-4.53,1.71-1.63,1.49-2.37,3.73-3.47,5.55-.07-3.22,2.28-5.38,2.98-8.34.84-3.57.58-9.53-1.29-12.71-2.25,1.61-3.41,4.67-5.09,6.64,1.29-3.27,2.68-6.4,2.34-9.7-.36-3.43-.08-6.91-.24-10.36-1.38.68-2.52,3.6-3.23,4.95-1.05,2.02-2.03,4.45-2.35,6.7-3.58-4.44,1.73-16.32,1.81-21.79-2.81,4.85-5.15,7.69-8.97,11.75,3.39-5.75,4.63-10.8,2.3-17.12-1.72-4.66-4.79-9.33-4.17-14.54-1.35,3.54-2.07,7.51-2.73,10.99-.91-4.16-1.57-7.96-1.21-12.23.29-3.52,1.49-8.72-.52-11.85-2.56,9.13-6.59,18.66-14.85,24.06,5.62-16.95.05-33.96-8.95-48.76-9.59-15.77-29.22-23.03-40.7-37.42-5.21-6.53-10.22-13.57-13.08-21.47-1.21-3.34-.57-10.65-2.73-13.05Z"/>
  <path class="cls-3" d="M1371.85,502.57c-1.44-5.58.25-11.61-1.05-17.3-.87-3.82-2.69-7.89-4.8-11.08-4.57-6.9-9.99-13.28-16.73-17.96,4.71.06,10.51,1.63,15.12,0-6.32-1.61-13.78-5.22-16.85-11.2,4.77,2.56,14.89,2.53,20.19,2.09-5.75-2.15-15.69-5.12-18.86-11.53,3.09-.22,6.9.53,9.69-.54-4.99-2.56-9.77-3.85-14.01-7.89-6.35-6.03-10.96-14.65-15.84-21.92-5.61-8.36-11.83-15.18-19.1-22.03-7.32-6.89-14.61-12.67-22.56-18.06-7.52-5.1-14.37-11.37-22.83-15.15-10.35-4.63-21.97-7.24-32.94-9.88-14.53-3.49-30.5-3.26-45.26-3.83-14.19-.55-28.62,2.3-42.32,5.02-21.02,4.17-42.26,7.75-63.32,12.12-11.81,2.45-22.94,6.64-34.41,10.16-8.31,2.55-17.26,1.98-24.94,6.08-6.99,3.73-16.31,5.28-24.36,6.76-21.26,3.92-43.25,4.06-64.87,4.06-7.96,0-15.81.47-23.71.45-4.54-.01-8.67,1.64-13.15,1.37,3.2-2.9,5.07-7.2,6.65-11.12-5.59,6.26-12.9,10.07-20.71,12.86.39-1.68.33-3.89.38-5.82.16-6.18-2.31-10.27-4.07-15.64-.22,5.55.29,13.15-3.14,17.45-4.09,5.14-11.55,4.62-17.13,6.87-6.7,2.71-13.13,7.56-19.17,11.71-8.91,6.11-17.79,12.07-26.48,18.39-20.65,15-41.15,30.26-61.31,45.73-7.66,5.88-15.46,11.29-23.31,16.61-8.64,5.85-15.92,12.36-24.04,18.94-7.44,6.03-14.97,11.95-22.77,17.38-3.86,2.69-10.41,6.86-12.75,11.36l122.2,39.84c-.23-.92-.37-1.85-.41-2.78-.06-1.51.26-2.93.95-4.24.44-1.36,1.2-2.54,2.27-3.54,1.99-1.99,4.96-3.22,7.78-3.22h3.48c.57,0,1.13.06,1.68.15,3.53-4.07,7.48-7.5,12.67-8.21,8.84-1.2,13.19,5.37,16,13.14,1.2.49,2.39,1.16,3.51,2.05,6.81,5.4,6.92,15.13,5.44,22.88-.07.37-.17.73-.28,1.08l71.14,23.19c-.21-5.65,3.33-11.48,10.61-11.51,11.64-.04,22.69-.8,33.81-4.31,11.23-3.54,21.08-9.91,31.3-15.68,24.81-13.99,51.23-25.47,80.12-26.28,7.39-.21,11.67,6.77,10.6,13.08,4.17-.26,8.38-.29,12.54.06,12.41-4.21,24.95-8.17,37.77-10.41,4.36-.76,8.29.19,11.19,3.51,4.74,1.19,8.83,5.61,8.52,10.68-.61,10.01,4.76,17.74,11.73,25.52,8.16,9.11,17.12,17.39,23.34,28.05.22.38.43.77.64,1.15,6.32-3.78,17.02-.76,17.44,9.02.03.71.24,1.55.58,2.47.92,1.74,1.78,3.5,2.62,5.26,1.07,1.8,2.26,3.62,3.34,5.21.98,1.44,1.98,2.87,2.97,4.3,6.25,2.03,12.4,4.37,18.18,7.72,7.93,4.59,6.01,15.56-.4,19.33,3.79,5.36,7.58,10.72,10.91,16.38,1.6.91,2.96,2.21,3.85,3.9,3.22,6.1,6.66,11.76,8.38,18.19,1.15,1.7,1.78,3.74,1.91,5.82l.24.08c2.77,14,3.85,30.91.52,44.88-3.57,14.97-11.28,27.3-20.61,39.24-8.31,10.62-17.68,20.88-30.44,25.25-11.9,4.07-20.59,9.29-22.58,22.68-1.18,7.9,4.96,8,11.22,8.89,5.78.83,11.44,1.13,17.15-.26,4.81-1.17,9.81.07,14.91.52,6.37.56,11-.76,15.91-5.18,7.49-6.75,12.62-16.51,18.02-24.91,4.34-6.75,8.99-13.71,13.91-20.08,2.82-3.65,5.07-7.97,7.87-11.85,11.91-16.52,28.61-31.74,34.01-51.26,4.47-16.17-4.47-26.88-12.43-40.82-5.74-10.06-10.41-20.23-13.9-31.27-2.18-6.91-5.39-13.78-7.35-20.68-1.14-4,2.18-14.23-1.1-17.24,4.26,3.91,5.75,9.85,8.76,14.51,1.5-7.65,3.24-21.13.62-28.86.94,2.94,3.77,5.38,6.94,5.86-.98-3.36-.77-10.67.54-13.76,1.2,1.08,2.42,2.96,3.19,4.29.47-4.19-1.2-8.43-1.58-12.58,1.57.55,3.44.48,5.12.39-2.03-1.73-2.11-5.37-3.44-7.06,1.54,1.4,3.47,2.39,5.13,3.5-1.49-2.29.87-6.87,1.59-9.26.7,1.58,1.26,3.49,1.06,5.23,2.63-4.72,3.03-9.78,4.06-14.99,1.43,3.79,1.7,7.29,1.95,11.22,5.53-5.72,4.35-14.51,6.22-21.53,2.58,1.68,3.45,7.23,3.99,10.19,2.4-6.94,2.63-14.76.02-21.75,3.31,1.8,7.67,5.07,11.32,5.56-6.29-9.57-18.07-23.32-7.57-34.48-1.4-.45-2.98-.82-4.27-.37,1.42-6.55,11.2-13.29,17.77-10.87-.94-6.66-8.82-7.57-13.74-9.01,4.07-2.47,10.36-3.01,15.04-3.3,2.47-.15,5.17-.5,7.11,1.02,1.69,1.33,3.92,2.76,5.32,4.47.93-6.23,1.41-11.73-1.98-17.62,4.52,4.42,11.02,7.12,12.45,13.98-.06-8.31-2.61-15.38-6.32-22.48,4.08,4.16,9.24,8.13,11.76,13.41Z"/>
  <path class="cls-2" d="M1225.25,835.59c-9.89.41-26.39,15.85-13.84,23.54"/>
  <path class="cls-2" d="M1200.51,451.81c1.55,14.14-2.15,31.08-4.23,45.12-2.86,19.32-7.07,38.53-7.27,58.24-.42,40.19,11.91,76.9,35.39,109.24,12.03,16.58,26.85,36.84,31.88,56.46"/>
  <path class="cls-2" d="M1190.04,534.35c-1.45-2.74-2.63-5.2-3.02-8.16-1.22,3.03-.81,6.72-.77,10.19-2.36-2.18-4.65-5.05-6.17-7.39-1.24,4.32-2.31,10.33.09,14.28-7.33-4.53-11.66-16.38-10.78-24.74-3.66,4.42-7.34,9.73-12.96,11.1,3.69-7.7,6.2-16.87,6.07-25.71-1.77,3.95-3.81,7.77-4.84,12.02-1.82-3.84-.58-9.57-2.07-13.69-6.81,6.16-9.39,13.91-9.2,23.42-1.42-3.91-3.78-8.04-6.18-11.73,1.3,5.31.2,11.01,1.62,16.35-2.82-3.25-6.42-6.34-7.54-10.28-.12,5.22,1.76,11.74,5.11,15.78-4.52-2.47-8.1-6.28-11.49-10.36,1.61,4.53,2.2,9.86,4.75,13.98-3.73-4.4-9.03-8.16-10.01-13.98-4.02,5.16-2.13,11.97-3.83,17.89-.67-1.81-2.31-3.65-2.93-5.09-2.47,9.83,1.28,19.6,5.67,28.38-27.91-13.51-55.74,13.27-79.51,24.43-29.86,14.02-61.79,24.51-95.02,21.47-14.5-1.33-30.16-3.74-44.77-3.11,2.91,4.11,3.83,9.4,8.11,12.15-4.91.33-10.64-1.28-15.19-3.37,2.37,3.23,3.95,7.15,7.4,9.55-7.14.06-14.25-3.74-18.99-8.83-2.05,3.57-2.17,9.32-.69,13.32-1.18-5.18-3.84-9.57-4.81-15.07-4.3,3.29-6.41,10.48-7.56,15.82,1.41-3.63.39-7.75,1.59-11.26-.7,2.22-3,4.3-3.75,6.64-.88,2.73-1.2,5.71-1.23,8.59-.03,3.43-.14,7.35,1.74,10.37.96,1.53,2.55,3.41,3.45,4.71,1.98.5,4.09,1.76,6.43,2.22s4.66.27,7.03.43c-3.21,2.74-8.61,4.89-12.64,6.44-2.01.77-4.31,1.12-6.45,1.33,3.92.62,7.63,2.44,11.67,3.01,3.6.51,7.05.08,10.34-1.41-5.05.45-9.96,5.65-14.82,7.17-4.25,1.33-8.53,1.39-12.92,1.4.45.18,1.05,1.26,1.59,1.86,1.06,1.19,2.65,2.39,4.13,3.03,2.94,1.29,6.54.77,9.68.77-4.05-.25-8.44,1.1-12.46,1.61-2.62.33-6.78,1.64-9.3.39,1.75-.27,3.44,1.88,4.95,2.59,2.96,1.39,5.83,1.07,8.99,1.31-5.03,2.54-11.26,6.57-16.94,7.17-2.56.27-4.97-.2-7.42.6-5.53,1.81-10.4,1.23-15.8,3.26-7.01,2.63-13.36,6.68-20.3,9.4-8.99,3.53-16.91,7.91-25.57,12.55-11.42,6.12-22.99,12.86-34.79,18.04-8.38,3.68-16.13,8.43-23.79,13.41-3.97,2.58-8.59,4.77-12.21,7.84-2.01,1.7-3.74,3.88-5.63,5.28-1.06.79-2.89,1.63-3.84,2.55-5.49,5.34-9.17,13.11-16.67,16.28-6.95,2.93-14.48,1.34-21.6,5.36-7.65,4.32-13.52,11.09-21.09,15.7-5.8,3.54-11.9,6.61-17.62,10.33s-10.12,5.53-17.35,4.79c-5.73-.59-11.52-1.23-17.45-1.25-1.84.34-4.62.8-6.54.56s-3.86-.46-5.86-.46c-2.3,0-4.74.02-7.02-.31-2.4-.35-4.3-1.42-6.48-2.4-4.8-2.15-3.57-6.42-2.04-10.68,1.63-4.55,4.5-10,8.18-13.2,4.39-3.81,10.51-6.06,16.3-6.05,3.46,0,7.02.19,10.44-.12,2.18-.19,4.7-.9,6.81-.79,3.37-3.66,9.84-5.48,14.25-7.91,7.58-4.17,15.44-8.17,22.97-12.5,14.09-8.11,22.62-21.38,34.31-32.22,6.46-5.99,12.86-12.46,20.74-16.55,10.2-5.3,20.96-10.07,30.81-16.42,13.99-9.02,27.06-19.25,38.17-31.91,3.6-4.1,7.06-8.26,10.7-12.25,1.86-2.04,5.19-5.26,6.15-7.8.83-2.21.06-3.93-.28-6.25-.57-3.79-1.13-7.57-1.81-11.34-1.14-6.33-2.17-12.61-2.17-19.09,0-5.59-.5-11.91,1.16-17.33,1.52-4.97,4.22-9.54,6.47-14.17,2.05-4.23,5.54-8.11,8.46-11.4,1.77-1.99,4.14-3.91,6.62-4.87-3.6-1.35-7.76-.61-11.06.72,2.24-4.23,10.14-4.81,14.23-6.24,5.06-1.77,9.42-5.12,13.57-8.39,9.7,5.86,18.63,14.25,21.87,25.61-1.69-2.35-3.04-4.89-5.86-6.2,1.28,3.28,2.25,6.59,3.26,9.97s1.9,8.74.76,12.06c-.71-4.1-2.92-6.03-4.88-9.41,2.86,5.97,3.4,13.08.88,19.19.04-3.88-1.99-6.46-3.45-9.73-.31,3.06.73,6.15.77,9.22.03,2.5-.7,4.74-1.01,7.17-.75-3.25-1.14-5.93-3.62-8.05-2.04,3.75-1.64,8.39-3.9,12.07-.29-1.99-.99-4.61-2.38-6.15-1.47,4.92-.08,11.94-3.04,16.34-.23-2.06-1.64-5.21-2.9-6.8.09,2.75-.1,5.52.02,8.24.46,10.84-3.78,25.64,8.45,30.78-2.94.2-6.49-.33-8.87-2.12.81,3.51,3.98,6.48,7.05,8.21-1.73.25-4.17-.1-5.8-.55,2.93,6.81,8.03,14.07,14.16,18.22,5.35,3.63,11.57,6.12,17.86,7.62,5.89,1.41,11.91,2.59,18.03,2.52"/>
  <path class="cls-2" d="M1151.22,508.72c-.39,3.53.84,7.05,1.02,10.53.21,4.24.03,8.6-.35,12.77-.83,9.03-1.25,18.16-.35,27.25,1.83,18.42,14.28,35.73,28.43,47.29,5.51,4.5,13.73,12.23,20.73,14.13"/>
  <path class="cls-2" d="M1291.82,636.17c6.64,1.98,13.82,5.66,20.02,8.92,6.96,3.65,11.59,8.41,17.09,13.81,3.73,3.66,7.8,7.11,9.31,12.18,2.16,7.21.76,15.2.76,22.74,0,16.95,1.24,33.97.38,50.9-.72,14.18,2.19,28.63,9.69,41.06,4.5,7.45,8.95,8.89,16.39,4.29,4.74-2.94,10.95-9.44,7.67-15.43"/>
  <path class="cls-1" d="M1352.04,760.06c2.59,7.08,9.36,28.35,20.23,16,3.21-3.65,2.71-11.09,2.03-15.64-.47-3.13-.57-4.71.27-8.04.68-2.71,1.51-6.06.5-8.82-1.92-5.25-8.17-6.32-9.23-11.89,1.68-4.64,1.84-13.02,2.31-18.22.63-6.93,1.41-13.79,1.82-20.69.66-11.13,2.95-21.97,2.4-33.2-.43-8.62,1.43-17.85-5.38-24.08-8.84-8.09-18.5-14.75-25.9-24.26-6.1-7.84-6.89-17.9-11.31-26.07-1.19-2.19-.3-5.02-.68-7.53-.34-2.25-.62-5.77-1.65-7.76"/>
  <path class="cls-2" d="M1012.4,603.19c.57,2.74.99,5.56,1.49,8.32.88,4.82,2.21,9.57,3.37,14.34,1.99,8.16,4.4,16.41,7.75,24.13,1.6,3.69,1.93,8.17,3.34,11.92,2.89,7.68,5.69,15.44,8.14,23.33,5.19,16.75,10.71,33.28,17.63,49.38,6.81,15.85,1.89,31.68-2.32,47.71-3.45,13.14-8.64,25.73-13.08,38.47-2.34,6.71-4.41,13.77-7.36,20.19-1.39,3.01-2.75,6.15-6.01,7.33-3,1.09-7.45.58-10.74.76-4.89.26-9.84.44-14.56-.58-3.8-.82-5.79-2.69-9.96-2.03-3.71.58-7.07,1.31-11.07,1.11s-4.88-1.31-8.12-2.95c-4.25-2.16-7.44-2.13-5.07-8.8,2.08-5.87,8.41-10.82,13.49-14.14,6.4-4.18,12.88-4.24,19.64-5.67,1.73-.36,3.36-.94,5.17-1.29,5.05-.99,6.44-12.38,7.42-17.06s1.21-8.97,1.89-13.57c1-6.81,1.81-13.86,2.5-20.68s-3.14-11.59-6.55-17.36c-5.13-8.68-8.59-19.22-11.4-28.93-1.98-6.86-4.49-13.4-7.51-19.89-1.5-3.22-3.95-9.72-4.44-9.86-.41-4.07-3.34-7.56-5.56-10.93-2.96-4.49-5.82-9.32-8.55-13.93-7.95-13.44-17.35-25.18-27.34-37.18-2.64-3.17-5.07-6.48-7.81-9.56-1.33-1.5-3.02-2.97-3.98-4.73"/>
  <path class="cls-2" d="M871.9,483.22c10.04,18.4,10.47,41.04,12.27,61.46,1.93,21.95.41,42.97-8.44,63.33-2.93,6.75-9.09,16.28-8.55,23.72"/>
  <path class="cls-2" d="M881.25,595.75c2.45,2.7,4.76,8.63,3.37,12.22,1.2-3.78,1.62-7.48,1.56-11.66,1.56,2.89,4.05,7.63,7.38,8.62.15.15.14.15-.03.02-1.46-2.29-2.06-5.55-1.92-8.3,4.5,5.02,8.92,6.24,15.88,4.97-1.48-2.23-4.26-3.62-6.3-5.51,4.7,4.02,18.22,3.63,23.65,1.79-4.39-.62-9.55-.81-13.1-3.8,22.37,4.36,45.63-5.24,66.79-12.65,14.24-4.99,27.53-10.09,40.32-18,10.21-6.31,20.44-11.03,32.09-13.32,7.02-1.38,14.07-.97,21.12-.01,8.37,1.14,14.81,5.59,22.51,7.66-1.48-3.25-3.98-6.26-6.81-8.59,4.98.78,9.39,3.94,14.24,5.31-1.69-2.84-2.3-6.46-2.89-9.71,2.09,3.61,5.91,5.85,9.43,7.68-.09-3.87-1.75-7.73-1.59-11.79,1.86,2.72,4.14,5.4,5.29,8.42.25-6.34.08-16.19,3.29-21.69.63,1.77,1.74,3.25,2.88,4.77,1.03-2.59,1.13-5.99,3.41-7.74.38.34.56.77.81,1.29"/>
  <path class="cls-2" d="M619.74,521.01c.03,5.99,1.48,11.77,2.5,17.61.77,4.42,2.24,7.34,5.79,10.28,1.91,1.59,5.85,3.85,8.49,2.68s2.25-5.93,2.81-8.5c1.02-4.62,2.87-15.52,8.76-15.21,1.5.08,2.47,1.37,3.4-.23.73-1.25-.59-4.52-.84-5.79-1.06-5.32-2.62-10.13-5.24-14.88-4.16-7.55-10.95-13.01-19.31-13.84-3.68-.37-4.57,8.76-4.71,10.33-.5,5.51-1.67,11.89-1.63,17.55Z"/>
  <path class="cls-2" d="M613.12,544.74c3.36,5.27,1.35,13.52,5.24,19.31,3.01,4.47,5.39,7.26,6.29,13,1.07,6.92,2.6,12.52,9.42,15.16,4.13,1.6,7.53,3.78,11.24,6.08,1.7,1.05,2.94,2.02,3.97-.29"/>
  <path class="cls-2" d="M620.5,530.94c0,6.55-1.43,13.8.59,20.08,1.31,4.07,3.75,7.59,5.45,11.47,2.02,4.61,3.11,9.57,5.45,14,1.48,2.81,3.38,4.67,5.94,6.43,3.32-3.03,1.11-10.83,5.34-12.4.81-.3,1.33-.12,2.04-.64,1.4-1.04,2.11-3.79,2.71-5.35.74-1.95,1.76-7.56,4.09-7.94,2.06-.34,4.66,3.01,6.47,3.7,2.51-3.53.17-9.26-1.79-12.58.06-.62-.37-1.75-.4-2.77-.06-1.93-.06-3.81-.59-5.67-1.14-3.98-3.4-7.68-4.05-11.68"/>
  <path class="cls-2" d="M597.69,554.82c6.24,1.16-6.05,11.04-7.3,12.02-7.78,6.12-15.33,12.87-19.95,21.71-7.53,14.38-8.93,30.93-19.53,43.83-4.21,5.12-12.75,10.61-13.18,17.7-.37,6.13-.7,11.71-2.65,17.49-1.6,4.77-5.46,9-3.9,14.17s6.44,9.04,11.49,10.64c6.95,2.2,11.99-1.61,18.1-3.96,6.64-2.55,13.84.94,19,4.74"/>
  <path class="cls-2" d="M505.49,657.58c2.47.37,5.11.54,6.37,3.06,1.4,2.81,1.14,6.79.68,9.78-.42,2.73-1.15,5.49-3.39,7.33-1.9,1.56-4.34,3.43-2.85,6.02,1.37,2.38,3.39,4.5,4.68,6.9"/>
  <path class="cls-2" d="M574.27,592.57c1.02,1.3,1.25,1.93.93,3.78-.38,2.22-1.24,5.36-3.34,6.59-1.42.83-2.32,1.05-2.98-.62-.9-2.27.32-5.09,1.52-7.05.88-1.44,2.1-1.91,3.87-2.7Z"/>
  <path class="cls-2" d="M1326.15,581.23c.41,13.95,8.88,29.14,18.71,38.92,5.22,5.19,10.74,10.28,16.3,15.1,4.13,3.58,10.35,9.02,11.54,14.54,1.51,7.01-.22,15.31-1,22.22-.88,7.69-.68,16.06-.94,23.85-.31,9.45-1.59,18.79-1.87,28.25-.09,3.19-.15,6.48,0,9.67.17,3.74,1.99,6.29,3.81,9.6,2.89,5.24.91,9.26.02,14.91-.76,4.83,2.57,11.31.54,16.05"/>
  <path class="cls-2" d="M519.19,695.96c2.33,2.91,8.39,2.02,11.57,1.72,6.66-.63,13.36-1.5,19.25-5.04,3.57-2.15,7.29-4.35,10.78-6.38,5.17-3,11.81-.37,17.47-1.82"/>
  <path class="cls-2" d="M572.18,613.23c-.09-.89.94-2.55,1.32-3.32.59-1.19,1.4-2.32,2.5-3.08,2.04-1.41,4.56-1.69,6.89-.74,1.85.76,3.25,2.15,4.47,3.68.58.73,1.28,1.55,1.15,2.53-.14,1.06-1.06,2.28-1.83,2.98-1.58,1.43-4.32,2.6-6.48,2.65-1.74.04-3.55-.74-5.01-1.65-.73-.45-1.43-1.01-2.06-1.59-.29-.27-.8-.62-.96-1.47Z"/>
  <path class="cls-4" d="M579.62,612.58c1.93,0,1.93-3,0-3s-1.93,3,0,3h0Z"/>
  <path class="cls-4" d="M580.41,613.04c1.93,0,1.93-3,0-3s-1.93,3,0,3h0Z"/>
  <path class="cls-4" d="M579.72,609.91l-.26.13c-.17.09-.32.22-.42.39-.13.14-.22.31-.27.51-.06.2-.07.4-.03.6,0,.2.07.39.18.56l.23.3c.19.19.41.31.66.39l.4.05c.27,0,.52-.07.76-.2l.26-.13c.17-.09.32-.22.42-.39.13-.14.22-.31.27-.51.06-.2.07-.4.03-.6,0-.2-.07-.39-.18-.56l-.23-.3c-.19-.19-.41-.31-.66-.39l-.4-.05c-.27,0-.52.07-.76.2h0Z"/>
  <path class="cls-4" d="M580.08,614.87c3.86,0,3.87-6,0-6s-3.87,6,0,6h0Z"/>
  <path class="cls-2" d="M712.45,490.52c-3.48,4.64-5.9,10.71-10.7,14.42,1.77-1.89,4.93-2.66,7.01-4.36,1.48-1.22,3.08-2.71,4.34-4.09-.46,3.45-1.6,8.67-4.58,10.9,3.78-2.45,7.14-4.27,9.84-7.91.63,5.31-1.71,9.53-5.49,12.72,3.81-.85,6.59-3.53,9.45-6.03,1.44,5.21,1.03,13.75-3.83,17.15,3.43-2.48,6.73-4.26,9.87-7.21,2-1.87,4.55-4.69,7.45-4.94.73,2.1,1.5,4.24,2.14,6.39,4.1-5.85,11.85-7.35,16.3-13.04,4.82-6.14,6.8-14.95,6.79-22.61-.06,4.55-3.09,9.38-5.24,13.29-1.23,2.24-3.04,6.76-6.2,6.51-.18-1.21.44-1.95.89-2.99,2.37-5.51,5.01-10.98,7.12-16.63.74-2,2.05-4.1,2.5-6.2-2.86,3.22-6.6,9.14-11.42,9.55,1.04-4.71,4.44-9.23,6.07-13.93-2.78.91-5.36,2.6-8.41,3.23,2.47-9.79,14.17-13.29,18.72-21.39-.97.49-1.68,1.57-2.66,2.05-.81.4-2.01.41-2.9.75.68-.92,1.5-1.51,1.75-2.55"/>
  <path class="cls-2" d="M647.92,668.21c5.64-1.75,10.43-6.94,15.34-10.14,4.25-2.77,8.59-4.46,13.55-5.44,2.09-.41,4.17-.56,6.28-.72,1.01-.08,2.53.1,3.32-.52-2.25.83-8.36-1.4-9.15-3.75,3.86,1.41,7.91-3.36,10.11-5.99,3.12-3.73,5.08-8.59,5.56-13.41-.73,1.1-1.9,1.67-3.02,2.25.6-2.92,3.64-5.41,4.18-8.55.43-2.49,1.01-5.46.91-7.99-1.27,2.68-7.02,5.2-9.77,5.17,1.48-2.24,3.96-3.75,5.31-6.22,1.56-2.85,2.49-5.59,3.2-8.71-1.44,1.94-2.69,3.34-5.08,4.1"/>
  <path class="cls-2" d="M777.74,604.12c-8.51,2.14-14.64,8.82-22.57,12.14,2.26-.54,5.03.04,6.95-1.58-4.33,5.7-13.17,3.93-18.92,6.98,1.76-.8,3.82-.05,5.5.75-.92.36-2.07.38-3.01.72.53.38,1.23.76,1.43,1.41-2.22.79-4.79-.14-7.06-.13-3.16,0-5.87,1.47-8.83,2.19.82,2.03,1.12,2.78,3.24,3.59,1.6.61,2.81.6,3.95-.85-.15,2.55-3.2,3.37-5.22,3.1-2.48-.33-4.52-1.38-7.08-1.35-1.93.02-3.79.44-5.72.35,2.32,1.13,5.3,3.73,5.72,6.33-2.24-.87-4.52-2.49-6.93-2.52s-4.97-.24-7.26.05c-2,.25-3.84,1.29-5.87,1.26,1.67,1.75,2.94,5.01,3.4,7.29-1.51-1.45-1.88-3.1-3.79-4.25-1.72-1.03-3.69-1.92-5.69-2.22-3.06-.46-6.4-.13-9.51-.13"/>
  <path class="cls-2" d="M864.17,611.63"/>
  <path class="cls-2" d="M865.79,573.13"/>
  <path class="cls-2" d="M817.47,546.91"/>
  <path class="cls-2" d="M856.38,538.71"/>
  <path class="cls-2" d="M610.92,532.19c-6.59-4.8-9.56-7.53-12.34-15.19-1.5-4.14-3.51-8.04-5.59-11.84-3.02-5.54-7.63-11.5-13.85-12.95-20.92-4.86-12.64,44.15-12.53,54.15.06,5.25-.26,11.37,2.11,15.97,1.64,3.17,4.26,6.04,6.61,8.72"/>
  <path class="cls-2" d="M1449.5,803.5"/>
</svg>