<?xml version="1.0" encoding="UTF-8"?>
<svg id="Layer_1" data-name="Layer 1" xmlns="http://www.w3.org/2000/svg" version="1.1" viewBox="0 0 1920 1080">
  <defs>
    <style>
      .cls-1 {
        fill: none;
        stroke: #000;
        stroke-miterlimit: 10;
        stroke-width: .75px;
      }
    </style>
  </defs>
  <path class="cls-1" d="M1211.05,390.5l.26-.33c4.38-5.55,7.79-11.94,9.55-18.8.54-2.12,2.32-7.36.77-9.27s-7.3-1.02-9.52-1.07c-16.63-.38-33.26-.75-49.89-1.13-4.19-.09-8.42-.19-12.5-1.19-10.02-2.44-17.92-9.91-26.8-15.14-.5-.3-1.01-.59-1.52-.87-6.39-3.53-13.38-5.95-20.58-7.17-3.6-.61-7.25-.92-10.89-.93-1.34,0-4.52.78-5.67.25-1.4-.65-.79-2.48-.74-4.07.24-8.31.42-16.62.54-24.94.06-4.16.1-8.31.12-12.47.01-2.16.02-4.32.03-6.49,0-1.25-.59-4.43,0-5.49-11.6,20.6-28.43,38.51-37.98,60.14-10.21,3.7-19.45,11.26-26.23,19.74s-11.95,18.12-17.08,27.69c-1.52,2.84-3.06,5.74-3.65,8.91-.77,4.2.2,8.51,1.26,12.65,3.66,14.33,8.51,28.58,16.83,40.81,7.32,10.78,17.08,19.63,26.74,28.37,3.43,3.1,6.87,6.22,10.77,8.71,4.2,2.68,8.85,4.59,13.53,6.3,11.53,4.21,24.22,7.01,36.34,8.99-5.95-7.15-9.7-16.42-8.97-25.7.58-7.33,3.9-14.24,8.32-20.12s9.93-10.84,15.46-15.68c6.48-5.66,12.95-11.45,20.32-15.94,8.3-5.07,16.62-6.57,26.08-8.06,3.31-.52,6.63-1.05,9.8-2.1,3.57-1.18,6.89-3.02,10.12-4.94,9.38-5.58,18.35-12.14,25.18-20.66Z"/>
  <path class="cls-1" d="M1205.22,361.24c-.34,3.23.2,6.55,1.55,9.51.62,1.35,1.43,2.65,2.62,3.52,1.66,1.22,4.2,1.37,5.68-.06.43-.41.75-.93,1.19-1.33s1.05-.71,1.62-.54c.84,1.68,1.11,3.63.76,5.48"/>
  <path class="cls-1" d="M1111.8,369.04c1.32-1.37,3.38-2.02,5.21-1.54,1.3.34,2.4,1.18,3.38,2.1,1.29,1.21,2.41,2.6,3.34,4.1-1.07,1.76-2.78,3.11-4.73,3.76s-4.14.57-6.04-.2c-3.54-1.44-3.63-5.66-1.16-8.23Z"/>
  <path class="cls-1" d="M1120.71,440.15c-3.83,8.99-2.25,19.44,1.25,28.56s8.8,17.46,12.62,26.45c6.98,16.42,8.83,34.97,5.25,52.44-2.03-8.38-7.22-15.96-14.3-20.89,2.24,10.72,4.49,21.56,4.13,32.5-.36,10.94-3.59,22.16-11.04,30.18.87-9.04-2.96-18.41-9.91-24.26,1.44,12.05.86,24.59-3.75,35.82-4.61,11.23-13.65,21-25.24,24.58,3.61-6.63,5.39-14.24,5.1-21.78-12.92,18.37-34.11,30.67-56.47,32.79-.23,0-.31.19-.55.19"/>
  <path class="cls-1" d="M999.02,399.11c-12.39,15.62-24.79,31.24-37.18,46.86,16.1,17.05,29.85,35.88,41.69,56.12,5.52,9.44,10.73,19.12,14.33,29.44,2.64,7.55,4.4,15.37,5.84,23.24,4.94,26.9,6.26,54.46,3.9,81.7"/>
  <path class="cls-1" d="M1027.85,636.44c-3.91,12.02-8.57,23.8-13.94,35.24"/>
  <path class="cls-1" d="M1014.81,673.26c-10.17-10.13-22.38-18.2-35.66-23.58-12.5-5.06-25.81-7.71-39.03-10.35-59.78-11.9-119.56-23.79-179.34-35.69-9.75,35.09-32.98,67.01-62.95,87.53-9.45,6.47-19.57,11.87-29.45,17.64-39.72,23.22-75.76,52.76-106.38,87.18,2.67-6.85,4.98-13.75,6.65-20.91,2.14-9.17,3.73-18.43,10.44-25.01,6.71-6.58,14.8-11.57,21.71-17.93,18.19-16.75,26.84-41.76,29.75-66.37,2.9-24.62.75-49.51.94-74.3.08-10.61.63-21.41,4.26-31.37,3.43-9.42,9.47-17.66,15.94-25.31,10.24-12.12,22.28-23.47,37.27-28.58,68.87-23.5,146.38-9.6,216.18-30.17,8.02-2.36,16.11-5.07,23.88-8.18,4.89-1.96,9.92-4.15,14.27-7.14,1.48-1.02,2.89-2.13,4.29-3.25,4.9-3.89,9.79-7.77,14.69-11.66"/>
  <path class="cls-1" d="M561.75,796.59c-5.19,12.73-8.92,26.06-11.09,39.63-.46,2.85-.84,5.75-.59,8.63.36,4.09,2.04,8.06,4.74,11.15,3.6,4.12,8.82,6.58,14.18,7.7s10.89,1,16.36.69c1.98-.11,4.07-.29,5.7-1.43,2.44-1.7,3.12-5.15,2.4-8.04s-2.56-5.34-4.36-7.71c-2.03-2.68-4.06-5.36-6.09-8.04-1.29-1.7-2.6-3.44-3.35-5.44-1.25-3.34-.83-7.05-.27-10.57,4.02-25.27,14.14-49.54,29.27-70.17,1.51-2.06,3.18-3.83,4.72-5.87"/>
  <path class="cls-1" d="M643.31,725.16c-3.86,32.5-6.99,65.09-9.38,97.73-.43,5.87-.6,12.46,3.35,16.82,2.08,2.3,5.02,3.6,7.92,4.7,8.08,3.06,17.02,5.02,25.35,2.72,2.08-.57,4.18-1.47,5.56-3.12,2.22-2.66,2.03-6.72.45-9.8s-4.28-5.42-6.94-7.65-5.4-4.5-7.09-7.53c-2.43-4.35-2.35-9.62-2.01-14.6.32-4.66.81-9.31,1.29-13.96,2.07-19.66,3.98-39.87,12.16-57.86,1.94-4.28,4.23-8.39,6.58-12.46,3.64-6.29,7.47-12.51,12.29-17.95,4.35-4.91,9.71-9.12,15.42-12.35,3.44-1.95,7.06-3.58,10.46-5.61,4.92-2.93,9.31-6.65,13.97-9.97,6.96-4.96,14.51-9.04,21.57-13.86,18.84-12.86,33.71-30.6,48.32-48.11"/>
  <path class="cls-1" d="M904.56,632.68c10.11,5.09,18.44,13.61,23.3,23.83s6.2,22.07,3.77,33.12c-1.68,7.61-5.07,14.75-6.97,22.3-2.95,11.71-2.2,24.32,2.13,35.6.2-5.9,2.37-11.71,6.07-16.3.52,10.15,2.27,20.23,5.19,29.97.65-4.03,2.1-7.93,4.24-11.41.74,7.54,2.16,15.02,4.24,22.31,1.29-3.71,2.66-8.12,3.96-11.84-.51,26.19-1.61,52.12-.21,78.28.51,9.55,6.5,18.33,14.55,23.5s17.93,6.99,27.48,6.48c3.2-.17,6.83-.86,8.49-3.6.61-1,.87-2.18.93-3.35.23-5.24-3.47-9.73-7.01-13.6s-7.28-7.53-7.56-12.76c-1.04-19.14.18-38.42,3.63-57.26,1.01-5.51,2.21-10.98,3.41-16.45,1.18-5.4,2.37-10.8,3.55-16.21,5.42-24.75,10.84-49.51,16.26-74.26"/>
  <path class="cls-1" d="M918.81,643.52c1.59,13.24-2.93,26.35-6.71,39.14s-6.86,26.66-2.51,39.27c.11-7.59,3.33-15.09,8.76-20.41-.53,7.12.15,14.33,1.99,21.23.73-1.49,1.46-2.98,2.19-4.47"/>
  <path class="cls-1" d="M934.57,746.8c1.37,21.08,2.09,42.2,2.16,63.33.02,5.97,0,12.05,1.83,17.73s5.83,11.01,11.53,12.8"/>
  <path id="tail" class="cls-1" d="M631.98,578.94c-8.37,8.42-14.95,18.42-20.18,29.04-9.56,19.43-14.88,40.58-21.16,61.2s-13.54,41.31-26.53,58.7c1.47-7.28,1.63-14.81.45-22.15-9.68,16.03-21.42,31.11-35.87,43.13-12.73,10.58-27.7,18.6-44.08,21.62-19.94,3.67-40.36-.03-59.53-5.78-33.21-9.96-69.12-24.45-90.72-52.94,3.51,1.34,21.6,28.49,0,0,29.64,10.24,61.64,18.24,92.64,9.24,65-20,87-87,126-137,11-13,21-24,35-35,26-18,54-26,83-33,11.91-2.87,25.55-.62,35.61,6.36s15.93,20.62,11.6,32.08c-.79,2.08-1.98,4.15-3.94,5.2-1.11.6-2.38.82-3.62,1.04-26.76,4.67-59.52-1.01-78.67,18.25Z"/>
</svg>