<?xml version="1.0" encoding="UTF-8"?>
<svg id="Layer_1" data-name="Layer 1" xmlns="http://www.w3.org/2000/svg" version="1.1" viewBox="0 0 931 599">
  <defs>
    <style>
      .cls-1 {
        fill: #fff;
      }

      .cls-1, .cls-2, .cls-3 {
        stroke: #000;
        stroke-miterlimit: 10;
      }

      .cls-2 {
        fill: #000;
      }

      .cls-3 {
        fill: none;
      }
    </style>
  </defs>
  <g id="tail">
    <path class="cls-3" d="M222.86,470.38c-6.34,2.2-13.18,3.66-19.76,4.98-18.01,3.59-36.61,1.75-54.86-.33,6.75-.54,13.36-2.32,19.82-4.33-22.13.64-44.03-4.67-63.18-15.79,11.67-2.47,23.22-4.26,34.68-7.56,16.42-4.74,32.35-11.23,47.43-19.35,8.2,4.75,16.08,10.79,22.3,17.94,6.22,7.14,11.48,15.21,13.57,24.45Z"/>
    <path class="cls-2" d="M374.53,254.59c-22.93,5.85-45.7,15.04-62.66,32.09-13.04,13.11-21.67,29.83-31.51,45.49-23.94,38.1-56.08,71-93.56,95.91,6.97,10.11,13.78,20.49,22.37,29.29,4.34,4.44,8.98,8.62,13.06,13.31,14.2-2.73,27.81-8.05,39.57-16.41-1.21,5.35-3.52,10.46-6.74,14.91,19.45-7.67,34.18-24.34,44.25-42.66,10.08-18.32,23.41-58.3,23.3-58.15s21.71-51.21,21.8-51.53,5.97-11.99,10.42-16.93c10.47-11.58,26.87-15.5,42.36-17.45,6.78-.85,13.72-1.48,19.98-4.23,6.26-2.75,11.84-8.11,12.78-14.88,3.85-27.72-42.93-11.94-55.42-8.75Z"/>
  </g>
  <path class="cls-1" d="M622.51,397.29c-2.76,11.61-3.76,24.28,1.27,35.11.57-5.31,2.59-10.45,5.78-14.73.52,9.91,3.16,19.71,7.68,28.55.92-3.08,2.77-5.88,5.24-7.93,3.37,29.76-2.66,60.01.88,89.76.21,1.74.47,3.55,1.46,5,1.15,1.7,3.1,2.65,4.99,3.46,2.9,1.25,5.88,2.34,8.9,3.27,1.9.59,3.94,1.11,5.86.6,3.9-1.04,5.48-5.62,6.35-9.56,8.41-38.24,6.48-78.29-1.98-116.52-3.9-17.64-9.5-35.58-21.41-49.17-2.21-2.53-4.79-4.98-8.05-5.79-8.74-2.17-8.79,7.35-10.14,13.04-1.99,8.38-4.85,16.53-6.83,24.91Z"/>
  <path class="cls-1" d="M441.39,405.42c-6.26,4.95-12.42,10.15-17.28,16.48-7.22,9.41-11.22,20.88-14.03,32.4-4.42,18.15-6.14,36.83-7.84,55.43-.44,4.78-.81,9.88,1.46,14.11,2.28,4.25,6.77,6.75,10.24,10.1s5.96,8.95,3.16,12.88c-2.2,3.08-6.54,3.57-10.32,3.42-5.27-.2-10.51-1.1-15.54-2.65-4.16-1.28-8.37-3.15-10.98-6.63-3.67-4.9-3.29-11.62-2.75-17.72,2.6-28.92,5.2-57.83,7.79-86.75.48-5.35.99-10.81,3.17-15.72,3.73-8.4,11.7-13.95,19.02-19.52,25.06-19.08,46.15-43.04,63.85-69.1,2.57-3.78,5.33-7.83,9.58-9.49,3.97-1.55,8.43-.7,12.56.32,9.73,2.42,19.64,5.56,28.66,10.01,5.31,2.62,5.25,3.74,1.36,8.07-3.26,3.62-7.07,6.87-10.71,10.1-14.38,12.76-30.11,23.86-45.68,35.08-8.67,6.25-17.33,12.53-25.72,19.16Z"/>
  <path class="cls-1" d="M314.52,503.75c-4.65,12.41-9.34,25.02-10.32,38.24-.19,2.5-.22,5.11.76,7.42.72,1.7,1.94,3.12,3.16,4.5,1.51,1.71,3.06,3.41,4.92,4.73,2.67,1.89,5.85,2.93,9.05,3.62,4.25.92,8.63,1.28,12.98,1.07,2.55-.13,5.31-.55,7.09-2.39,1.93-2,2.13-5.21,1.16-7.81s-2.89-4.72-4.85-6.69-4.03-3.89-5.41-6.3c-1.81-3.17-2.28-6.97-1.97-10.62s1.34-7.18,2.37-10.68c2.4-8.16,4.8-16.33,7.2-24.49,3.06-10.42,8.29-19.93,14.04-29.15.62-1,1.27-2.04,1.35-3.21s-.66-2.49-1.82-2.61c-.68-.07-1.34.26-1.94.6-6.25,3.51-11.74,8.2-17.07,13-3.79,3.41-7.57,6.93-10.4,11.17-1.8,2.69-3.18,5.63-4.56,8.55-1.78,3.78-4.24,7.15-5.71,11.06Z"/>
  <path class="cls-1" d="M815.21,110.8c.93,1.99,1.31,4.19,1.63,6.36,1.02,6.91,1.56,13.93,3.37,20.67,1.81,6.75,5.04,13.36,10.48,17.75,1.1.89,2.32,1.69,3.7,1.97,1.15.23,2.33.08,3.49-.07,4.6-.59,9.22-1.19,13.68-2.42,10.31-2.86,19.51-9.12,26.7-17.04,7.19-7.92,12.45-17.46,16.26-27.45,1.01-2.66,1.18-4.55.73-7.36-15.55.21-31.1.42-46.64.63-6.08.08-12.24.16-18.17-1.22-8.55-1.98-14.76-9.29-22.25-13.87s-15.73-8.43-24.49-8.94c-2.52-.15-5.12,0-7.45.96,7.28,6.76,16.69,10.87,24.14,17.45,3.79,3.35,7.03,7.29,10.85,10.61,1.11.96,2.7,2.66,3.99,1.97Z"/>
  <path id="Head" class="cls-2" d="M793.45,233.92c-7.09-7.25-10.35-18.06-8.43-28.02s8.94-18.8,18.21-22.9c.61-.27,1.24-.53,1.71-.99.51-.5.8-1.18,1.09-1.83,5.11-11.5,16.32-20.49,28.75-22.47-4.45-5.26-7.66-11.56-9.31-18.25-1.26-5.13-2.1-10.36-2.68-15.61-2.07-18.69-15.05-31.67-31.72-40.1-4.59-2.32-16.14-5.07-14.89-2.7,6.92,13.06,7.39-9.88,2.64-30.52-2.32-10.07-4.89-20.06-8.32-29.81-1.9,11.76-5.98,23.16-11.95,33.47-5.71,9.86-13.23,19.67-14.68,30.97-11.3,3.68-20.86,11.64-28.16,21.02-7.3,9.38-12.55,20.18-17.36,31.05,3.38,22.19,12.65,44.6,28.4,60.61,3.14,3.19,6.52,6.14,9.98,8.98,16.24,13.38,35.86,24.33,56.73,27.1Z"/>
  <path id="Eye" class="cls-1" d="M808.09,112.92c-1.22-2.33-3.63-4.1-6.26-4.2s-5.31,1.69-5.92,4.25c-.49,2.08.43,4.38,2.13,5.68s4.04,1.63,6.09,1.01c.92-.28,4.94-1.55,5.37-2.36.57-1.08-.89-3.39-1.41-4.38Z"/>
  <path class="cls-1" d="M714.84,380.91c.34.41-24.06,84.5-27.3,128.21-.67,9.01-4.46,19.36.41,26.96,4.48,6.99,11.46,12.92,12.68,21.14.21,1.42.22,2.93-.42,4.22-1.53,3.06-5.72,3.36-9.13,3.17-7.47-.43-15.12-1.26-21.81-4.63s-12.99-9.35-12.93-16.83c.17-22.88.34-45.76.52-68.64-.92,1.22-1.83,2.45-2.75,3.67-1.82-5.21-2.71-10.74-2.59-16.26-1.49,2.86-2.56,5.94-3.19,9.11-5.46-7.87-9.01-17.74-8.49-27.3-2.58,3.81-3.96,8.42-3.88,13.02-5.44-5.76-5.75-14.6-4.96-22.48.58-5.82,1.59-11.6,2.99-17.28,1.54-6.26,3.56-12.43,4.44-18.81,1.42-10.21-.18-20.87-4.88-30.04s-12.51-16.78-21.97-20.87c12.39-1.77,24.77-.59,37.19.97,9.37,1.17,18.85,2.37,27.65,5.79,4.27,1.66,8.33,3.83,12.37,5.99,6.93,3.7,14.03,7.54,19.1,13.53,2.21,2.61,4.76,4.76,6.95,7.38Z"/>
  <path class="cls-2" d="M722.72,354.92c-4.57,10-4.61,21.28-9.09,31.33-16.18-13.1-35.9-21.2-56.05-26.45s-40.87-7.79-61.46-10.88c-36.65-5.51-73.54-12.24-109.48-21.29-1.9,6.32-3.91,12.61-6.03,18.86-1.83,5.39-3.77,10.8-6.87,15.58-4.11,6.32-10.09,10.14-15.29,15.6-26.4,27.73-55.53,52.81-86.2,75.73-5.97,4.46-12,8.84-17.84,13.47-15.12,11.98-28.95,25.6-41.15,40.55,3.04-13.94,6.35-28.22,9.38-42.17,17.73-14.15,30.53-33.86,38.62-55.05s11.66-43.88,13.03-66.52c.59-9.78.78-19.61,2.31-29.29,1.65-10.49,4.85-20.68,8.64-30.59,4.21-11.02,9.27-21.91,17.03-30.8s19.16-14.25,30.3-18.11c45.31-15.73,94.51-13.18,142.16-18.64,22.6-2.59,45.66-6.96,65.01-18.93l26.7-16.52c16.76,10.94,30.83,27.01,40.36,44.61,4.86,8.98,8.57,18.54,11.59,28.29,10.13,32.77,18.59,70.06,4.33,101.25Z"/>
  <path class="cls-1" d="M818.9,273.04c1.66-7.04-3.11-14.98-10.11-16.82,5.25,8.49,6.45,19.04,4.97,28.92-1.48,9.87-5.45,19.2-9.95,28.12.51-7.77-2.44-15.7-7.9-21.25,1.79,19.6-7.8,39.84-24.1,50.86,1.67-4.95,2.14-10.29,1.36-15.46-7.08,8.79-16.54,15.63-27.1,19.6-7.73,2.91-16.06,4.33-23.28,8.32,7.33-30.89,5.78-63.75-4.77-93.69-10.47-29.69-30.05-55.57-51.1-78.97-.36-.41-.79-1.01-1.1-1.45,7.53-5.53,13.71-12.74,18.92-20.51,5.22-7.76,9.51-16.09,13.78-24.4,6.37,11.92,15.82,23.25,24.56,33.55,3.99,4.69,8.32,9.28,13.78,12.14,14.04,7.38,30.97,1.63,46.76.15,7.32-.68,14.53-1.03,21.78.22-.02,11.6,6.94,21.87,11.48,32.55,7.75,18.25,8.48,39.38,2.02,58.12Z"/>
  <path class="cls-2" d="M880.54,103.74c-1.12,1.12-1.78,2.67-1.95,4.25s.13,3.19.72,4.67c.39.98.92,1.93,1.75,2.57.89.69,2.07.97,3.18.83s2.17-.68,2.99-1.45c.37-.35.8-.78,1.3-.67.38.08.62.44.8.79.73,1.42,1.09,3.03,1.02,4.63.82-.82,1.32-1.91,1.79-2.97.91-2.03,1.82-4.07,2.4-6.22s.81-4.42.35-6.6c-4.73.34-9.62.36-14.36.15Z"/>
</svg>