<?xml version="1.0" encoding="UTF-8"?>
<svg id="Layer_1" data-name="Layer 1" xmlns="http://www.w3.org/2000/svg" version="1.1" viewBox="0 0 1920 1080">
  <defs>
    <style>
      .cls-1 {
        fill: #000;
      }

      .cls-1, .cls-2 {
        stroke-width: 0px;
      }

      .cls-2 {
        fill: #ff7407;
      }
    </style>
  </defs>
  <g id="tail">
    <path class="cls-1" d="M1159.46,320.64c11.52,0,19.58,3.39,22.69,9.54,3.59,7.09.71,17.34-8.32,29.66-6.09,8.31-13.95,15.37-21.54,22.2-2.34,2.1-4.76,4.28-7.09,6.46-37.02,34.61-62.52,79.77-87.17,123.45-6.05,10.72-12.31,21.8-18.62,32.53-19.14,32.51-36.75,57.01-55.42,77.11-22.47,24.2-45.81,41.17-71.21,51.78,15.24-17.31,26.02-38.2,31.26-60.7l.79-3.37-2.46,2.43c-20.16,19.92-47.95,30.23-72.47,39.34-30.46,11.31-64.99,24.13-100.35,24.13-3.03,0-6.06-.1-9.01-.28-34.59-2.21-66.87-17.48-95.35-30.95-24.82-11.74-49.89-23.78-74.61-35.81,7.18.31,14.43.46,21.62.46,36.77,0,73.98-4.01,110.62-11.93,36.19-7.82,71.8-19.44,105.85-34.55,34.11-15.13,66.61-33.74,96.62-55.31,30.47-21.9,58.36-46.87,82.91-74.21,6.87-7.65,13.63-15.64,20.17-23.36,12.83-15.15,26.09-30.82,40.76-44.64,25.76-24.27,52.17-38.73,78.49-42.96,4.21-.68,8.2-1.02,11.87-1.02M1159.46,319.64c-3.69,0-7.71.34-12.02,1.03-30.09,4.84-56.83,22.32-79.01,43.22-22.18,20.9-40.63,45.38-60.99,68.06-99.22,110.51-246.86,175.66-395.25,175.66-8.82,0-17.61-.23-26.42-.69,26.25,12.81,52.59,25.46,78.99,37.95,30.51,14.43,62.03,28.89,95.71,31.04,3.03.19,6.06.29,9.08.29,34.49,0,68.16-12.11,100.7-24.2,26.11-9.69,53.01-20,72.82-39.56-5.51,23.64-17.35,45.78-33.97,63.48,58.72-22.77,99.21-76.66,131.17-130.93,31.96-54.27,59.6-112.74,105.62-155.75,9.93-9.28,20.72-17.84,28.76-28.8,19-25.9,9.24-40.79-15.17-40.79h0Z"/>
    <g>
      <path class="cls-2" d="M756.78,698.63c-8.34,0-16.8-.52-25.15-1.55-23.17-2.86-43.31-9.02-59.87-18.31-14.68-8.23-27.48-19.39-38.33-29.2-15.79-14.27-33.31-31.31-41.5-52.95-2.93-7.75-4.01-14.53-3.3-20.71,35.01,10.97,73.8,16.48,122.02,17.32,3.73.06,7.16.1,10.5.1,22.81,0,41.13-1.58,57.68-4.96,21.99-4.5,38.46-13.43,51.84-28.1,1.97-2.16,3.8-3.25,5.45-3.25,4.47,0,7.33,7.87,9.63,14.19.48,1.32.94,2.57,1.37,3.66,4.22,10.5,8.01,21.96,11.59,35.02,3.96,14.46,7.1,28.95,9.65,41.22.29,1.37.61,2.92.18,4.31-.39,1.24-1.35,2.26-2.39,3.28-26.32,25.76-65.15,39.95-109.35,39.95Z"/>
      <path class="cls-1" d="M836.11,557.5h0c4.12,0,7.03,8.01,9.16,13.86.48,1.32.94,2.57,1.38,3.68,4.22,10.49,8,21.92,11.57,34.96,3.95,14.44,7.09,28.93,9.64,41.19.27,1.31.58,2.8.19,4.06-.35,1.13-1.27,2.1-2.26,3.07-26.22,25.67-64.93,39.81-109,39.81-8.32,0-16.76-.52-25.08-1.55-23.1-2.85-43.18-8.99-59.69-18.25-14.63-8.21-27.41-19.34-38.24-29.13-15.74-14.23-33.22-31.22-41.37-52.76-2.81-7.42-3.9-13.94-3.34-19.87,34.9,10.87,73.57,16.32,121.58,17.16,3.73.06,7.16.1,10.5.1,22.84,0,41.2-1.58,57.78-4.97,22.09-4.52,38.65-13.5,52.1-28.25,1.87-2.05,3.58-3.09,5.08-3.09M836.11,556.5c-1.69,0-3.61,1-5.82,3.42-14.11,15.48-31.03,23.75-51.57,27.95-18.91,3.87-38.26,4.95-57.58,4.95-3.5,0-7-.04-10.49-.1-41.37-.72-82.99-5.02-122.45-17.48-.98,7.27.66,14.68,3.26,21.54,8.04,21.26,24.77,37.91,41.63,53.15,11.97,10.82,24.35,21.37,38.42,29.27,18.37,10.31,39.15,15.79,60.05,18.37,8.31,1.03,16.75,1.56,25.21,1.56,40.39,0,81.11-12.1,109.7-40.09,1.04-1.01,2.09-2.1,2.52-3.49.46-1.47.15-3.05-.16-4.56-2.87-13.83-5.93-27.63-9.66-41.25-3.25-11.88-7.01-23.64-11.61-35.07-2.57-6.39-5.66-18.17-11.47-18.17h0Z"/>
    </g>
  </g>
</svg>